<svg width="32" height="32" viewBox="0 0 32 32" xmlns="http://www.w3.org/2000/svg">
    <g fill="none" fill-rule="evenodd">
        <path d="M9.5 2A1.5 1.5 0 0 1 11 3.5V5H8V3.5A1.5 1.5 0 0 1 9.5 2zm13 0A1.5 1.5 0 0 1 24 3.5V5h-3V3.5A1.5 1.5 0 0 1 22.5 2z" fill="#666"/>
        <path d="M6 5h20a3 3 0 0 1 3 3v3H3V8a3 3 0 0 1 3-3z" fill="#FF3E42"/>
        <path d="M3 11h26v15a3 3 0 0 1-3 3H6a3 3 0 0 1-3-3V11z" fill="#E0E3E8"/>
        <path d="M20.53 17.078a.746.746 0 0 0-1.04-.21c-.34.23-.44.7-.21 1.04a4.26 4.26 0 0 1-3.54 6.61 4.26 4.26 0 0 1-4.25-4.25 4.26 4.26 0 0 1 4.25-4.25c.19 0 .37.02.56.04l-.55.41a.75.75 0 0 0-.16 1.05c.15.2.38.31.61.31.15 0 .31-.05.44-.14l1.94-1.42c.01-.01.01-.02.02-.02.01-.01.02-.01.03-.02.03-.03.05-.06.07-.09.03-.04.07-.07.09-.12.02-.04.03-.09.05-.13.01-.05.03-.09.04-.14.01-.05 0-.09-.01-.14 0-.05 0-.09-.02-.14-.01-.05-.04-.09-.06-.14-.02-.03-.02-.07-.05-.11-.01-.01-.02-.01-.02-.02-.01-.01-.01-.02-.02-.03l-1.67-1.91a.747.747 0 0 0-1.06-.07c-.31.27-.34.75-.07 1.06l.28.32c-.14-.01-.28-.03-.43-.03-3.17 0-5.75 2.58-5.75 5.75s2.58 5.75 5.75 5.75 5.75-2.58 5.75-5.75c0-1.16-.33-2.26-.97-3.21z" fill="#818C9A" fill-rule="nonzero"/>
    </g>
</svg>
