<svg width="32" height="32" viewBox="0 0 32 32" xmlns="http://www.w3.org/2000/svg">
    <g transform="translate(0 3)" fill="none" fill-rule="evenodd">
        <circle fill="#D1EFD1" cx="19" cy="13" r="13"/>
        <circle fill="#71C772" cx="13" cy="13" r="13"/>
        <path d="m8.922 9.113.039.11 1.424 4.938 1.677-4.94c.294-.864 1.475-.902 1.847-.116l.048.118 1.66 4.927 1.422-4.927a1 1 0 0 1 1.124-.71l.114.026a1 1 0 0 1 .71 1.124l-.026.114L18.319 12H19.5a1 1 0 0 1 .117 1.993L19.5 14h-1.758l-1.089 3.777c-.26.9-1.482.967-1.862.158l-.046-.115-1.74-5.157-1.75 5.158c-.301.887-1.524.898-1.867.074l-.041-.118L8.257 14H6a1 1 0 0 1-.117-1.993L6 12h1.68l-.64-2.223a1 1 0 0 1 1.882-.664z" fill="#FFF" fill-rule="nonzero"/>
    </g>
</svg>
