<svg width="32" height="32" viewBox="0 0 32 32" xmlns="http://www.w3.org/2000/svg">
    <g transform="translate(1.333 2.667)" fill="none" fill-rule="evenodd">
        <path d="M6.667 18.667H5.333a5.333 5.333 0 0 1-1.022-10.57C5.461 3.449 9.661 0 14.667 0c5.005 0 9.205 3.448 10.355 8.098a5.334 5.334 0 0 1 .312 10.4v.169a8 8 0 0 1-7.751 7.996l-.25.004h-1.777V24h1.777a5.333 5.333 0 0 0 5.33-5.113l.004-.22v-8a8 8 0 0 0-15.997-.25l-.003.25v8z" fill="#5EC2B2"/>
        <rect fill="#444" x="10.667" y="22.667" width="8" height="4" rx="2"/>
    </g>
</svg>
