<svg width="32" height="32" viewBox="0 0 32 32" xmlns="http://www.w3.org/2000/svg">
    <g transform="translate(2.667 2.667)" fill="none" fill-rule="evenodd">
        <path d="M1.11 18.666h5.974c.222 1.354.53 2.612.915 3.738L8 25.557a13.382 13.382 0 0 1-6.89-6.89zm5.786-9.333a33.894 33.894 0 0 0-.227 3.563l-.002.437.006.689c.022 1.14.097 2.25.223 3.311l-6.285.001a13.328 13.328 0 0 1-.611-4c0-1.394.214-2.738.61-4zm11.526 0c.108.855.182 1.747.218 2.667H12a4.001 4.001 0 0 0-3.942 3.317A33.867 33.867 0 0 1 8 13.333a32.2 32.2 0 0 1 .244-4zM26.601 12h-6.626a33.27 33.27 0 0 0-.204-2.667h6.285c.269.855.454 1.747.545 2.667zM25.557 8h-5.974c-.535-3.248-1.562-5.946-2.958-7.591a13.367 13.367 0 0 1 8.932 7.59zM10.042.408C8.645 2.054 7.618 4.752 7.084 8H1.109A13.364 13.364 0 0 1 10.03.413zM13.333 0l.149.005C15.605.15 17.419 3.398 18.222 8H8.445c.823-4.71 2.702-8 4.89-8z" fill="#AADDEA"/>
        <rect fill="#0891B2" x="9.333" y="13.333" width="18.667" height="13.333" rx="2.667"/>
        <rect fill="#FFF" x="12" y="18.667" width="2.667" height="2.667" rx=".667"/>
    </g>
</svg>
