<svg width="32" height="32" viewBox="0 0 32 32" xmlns="http://www.w3.org/2000/svg">
    <g fill="none" fill-rule="evenodd">
        <path d="M22.56 20.776a43.062 43.062 0 0 0 1.88-3.404s.56-1.161.56-2.845c0-4.845-4.253-8.775-9.5-8.775-5.244 0-9.5 3.93-9.5 8.775 0 1.684.561 2.845.561 2.845.465.961 1.31 2.493 1.88 3.404l6.02 9.636c.571.912 1.504.912 2.073 0l6.026-9.636z" fill="#FFBC00"/>
        <path d="M19.123 26.262a420.526 420.526 0 0 0 2.86-4.573c1.047-1.698 1.869-3.137 2.465-4.317l-4.321-4.15-1.092-.172-3.712-3.32-3.731 10.652 7.531 5.88z" fill="#F90"/>
        <path d="M19.73 13.1h.002l-2.491-.12c-.335-.05-.539-.314-.606-.463l-.831-2.311a.963.963 0 0 0-.855-.524.964.964 0 0 0-.855.524l-.83 2.311c-.07.149-.272.414-.607.463l-2.49.12a.974.974 0 0 0-.828.965c0 .291.127.55.326.732l1.915 1.424c.185.189.289.477.251.73l-.698 2.426a.97.97 0 0 0 .943 1.182c.166 0 .32-.04.456-.114l2.029-1.46a.869.869 0 0 1 .387-.09h.003c.138 0 .27.032.385.09l2.03 1.46a.946.946 0 0 0 .455.114.972.972 0 0 0 .944-1.182l-.7-2.427a.89.89 0 0 1 .253-.729l1.916-1.424a.992.992 0 0 0 .325-.732.974.974 0 0 0-.828-.965" fill="#FFF"/>
        <path d="m24.098 1.37-1.172.817a.472.472 0 0 1-.432.003l-1.168-.76a.548.548 0 0 0-.568.06.562.562 0 0 0-.209.538l.414 1.34c.021.09.02.284-.117.422l-1.089.926a.564.564 0 0 0-.044.729c.098.13.244.205.396.216l1.356-.021a.5.5 0 0 1 .365.242l.513 1.347a.546.546 0 0 0 .833.206.57.57 0 0 0 .168-.21l.421-1.373a.48.48 0 0 1 .146-.177l.001-.002a.49.49 0 0 1 .204-.094l1.422-.045a.563.563 0 0 0 .27-.975l-1.148-.858a.501.501 0 0 1-.135-.419l.381-1.317a.564.564 0 0 0-.102-.446.548.548 0 0 0-.706-.149" fill="#FFBC00"/>
    </g>
</svg>
