<svg width="32" height="32" viewBox="0 0 32 32" xmlns="http://www.w3.org/2000/svg">
    <g transform="translate(5 1)" fill="none" fill-rule="evenodd">
        <path d="M20 0a2 2 0 0 1 2 2l.001 14.885A8 8 0 0 0 10.36 27.111c-1.024.428-1.21 1.97-2.554 1.97C6.245 29.081 6.245 27 4.684 27s-1.561 2.081-3.122 2.081c-.78 0-1.17-.52-1.561-1.04L0 2a2 2 0 0 1 2-2h18z" fill="#E0E3E8"/>
        <circle fill="#398BA7" cx="17.5" cy="23.5" r="6.5"/>
        <path d="M17 19a1 1 0 0 1 1 1v2.999L21 23a1 1 0 0 1 0 2h-4a1 1 0 0 1-1-1v-4a1 1 0 0 1 1-1z" fill="#FFF"/>
        <path d="M10 11a1 1 0 0 1 0 2H5a1 1 0 0 1 0-2h5zm7-6a1 1 0 0 1 0 2H5a1 1 0 1 1 0-2h12z" fill="#94A3B8"/>
    </g>
</svg>
