<svg width="32" height="32" viewBox="0 0 32 32" xmlns="http://www.w3.org/2000/svg">
    <g fill="none" fill-rule="evenodd">
        <path d="M9.5 2A1.5 1.5 0 0 1 11 3.5V5H8V3.5A1.5 1.5 0 0 1 9.5 2zm13 0A1.5 1.5 0 0 1 24 3.5V5h-3V3.5A1.5 1.5 0 0 1 22.5 2z" fill="#666"/>
        <path d="M6 5h20a3 3 0 0 1 3 3v3H3V8a3 3 0 0 1 3-3z" fill="#FF3E42"/>
        <path d="M3 11h26v15a3 3 0 0 1-3 3H6a3 3 0 0 1-3-3V11z" fill="#E8E8E8"/>
        <path d="M21.313 15.05a1 1 0 0 1 .667 1.15l-.03.113L21.393 18H22.5a1 1 0 0 1 .117 1.993L22.5 20h-1.766l-1.092 3.313c-.28.852-1.433.919-1.831.16l-.052-.113-1.753-4.551-1.766 4.553c-.324.835-1.477.843-1.836.067l-.046-.116L11.265 20H9.5a1 1 0 0 1-.117-1.993L9.5 18h1.106l-.556-1.687a1 1 0 0 1 1.857-.735l.043.109.944 2.864a.993.993 0 0 1 .09.271l.4 1.216 1.693-4.362c.315-.812 1.424-.85 1.813-.114l.052.116 1.676 4.35.4-1.219a.993.993 0 0 1 .085-.252l.947-2.87a1 1 0 0 1 1.263-.637z" fill="#666" fill-rule="nonzero"/>
    </g>
</svg>
