<svg width="32" height="32" viewBox="0 0 32 32" xmlns="http://www.w3.org/2000/svg">
    <g transform="translate(2.648 2.643)" fill="none" fill-rule="evenodd">
        <path d="M4.462 15.284a1.334 1.334 0 0 1-.26 1.768l-.11.081-2 1.334c-1.444.963-2.888-1.13-1.58-2.147l.1-.072 2-1.333a1.333 1.333 0 0 1 1.85.37zm17.762 0a1.333 1.333 0 0 1 1.85-.37l1.963 1.31.137.096c1.308 1.018-.137 3.11-1.58 2.147l-2-1.334-.11-.08a1.334 1.334 0 0 1-.26-1.769zM4.87.328l.093.087 2 2c.486.486.518 1.253.097 1.777l-.097.108a1.334 1.334 0 0 1-1.778.097L5.076 4.3l-2-2-.083-.088C1.933.989 3.644-.725 4.87.328zm16.943 0c1.224-1.053 2.935.66 1.875 1.884l-.083.088-2 2-.108.097a1.334 1.334 0 0 1-1.777-.097l-.098-.108a1.334 1.334 0 0 1 .098-1.777l2-2z" fill="#FC0" fill-rule="nonzero"/>
        <rect fill="#4989F4" x="12.019" y="14.691" width="2.667" height="13.333" rx="1.333"/>
        <path d="m13.352 17.357-5.074 2.668a.667.667 0 0 1-.967-.703l.969-5.65-4.105-4.001a.667.667 0 0 1 .37-1.137l5.672-.825 2.537-5.14a.667.667 0 0 1 1.196 0l2.537 5.14 5.673.825a.667.667 0 0 1 .37 1.137l-4.106 4.001.97 5.65a.667.667 0 0 1-.968.703l-5.074-2.668z" fill="#FC0"/>
    </g>
</svg>
