<svg width="32" height="32" viewBox="0 0 32 32" xmlns="http://www.w3.org/2000/svg">
    <g fill-rule="nonzero" fill="none">
        <path d="M16 6c-4.663 0-8.442 3.731-8.442 8.333v5l-.073.339-1.267 2.813C6.074 22.805 6 23.15 6 23.5 6 24.88 7.134 26 8.533 26h14.934c.354 0 .704-.073 1.028-.215a2.487 2.487 0 0 0 1.286-3.3l-1.266-2.813-.073-.339v-5C24.442 9.731 20.662 6 16 6z" fill="#FC0"/>
        <path d="M19 27c-.605 1.209-1.412 2-3 2s-2.396-.793-3-2zM15.886 3c1.042 0 1.887.827 1.887 1.847V5A11.634 11.634 0 0 0 14 5v-.153C14 3.827 14.845 3 15.886 3z" fill="#F97316"/>
    </g>
</svg>
