<svg width="32" height="32" viewBox="0 0 32 32" xmlns="http://www.w3.org/2000/svg">
    <g fill="none" fill-rule="evenodd">
        <path d="M23 1a2 2 0 0 1 2 2v17.192a6.145 6.145 0 0 0-3.436 2.306l-.065.092-.063-.09a6.173 6.173 0 0 0-4.972-2.5l-.248.005c-2.139.084-4.034 1.25-5.066 2.992l-.126.224-.048.008C9.796 23.446 9 24.427 9 25.647v.346l.005.163c.06 1.019.688 1.863 1.638 2.177l.184.052.029.066c.22.482.504.93.84 1.332-.235.18-.518.298-.89.298C9.245 30.081 9.245 28 7.684 28s-1.561 2.081-3.122 2.081c-.78 0-1.17-.52-1.561-1.04L3 3a2 2 0 0 1 2-2h18z" fill="#E0E3E8"/>
        <path d="M7 12h5a1 1 0 0 1 0 2H7a1 1 0 0 1 0-2zm0-6h12a1 1 0 0 1 0 2H7a1 1 0 1 1 0-2z" fill="#94A3B8"/>
        <g fill-rule="nonzero">
            <path d="M16.464 30c2.229 0 4.043-1.737 4.122-3.848.307-.11.643-.152.914-.152.279 0 .607.042.914.152C22.5 28.284 24.307 30 26.543 30c2.121 0 3.871-1.55 4.107-3.536h.879c.342 0 .471-.194.471-.47v-.312c0-.284-.129-.464-.471-.464H30.6C30.221 23.391 28.55 22 26.543 22c-1.922 0-3.522 1.266-3.993 2.969a3.151 3.151 0 0 0-1.05-.173c-.321 0-.714.048-1.05.173C19.979 23.266 18.371 22 16.464 22c-2 0-3.664 1.377-4.05 3.183h-.935c-.343 0-.479.18-.479.464v.346c0 .277.136.47.479.47h.871C12.586 28.45 14.336 30 16.464 30z" fill="#7D5834"/>
            <path d="M16.464 28.768c-1.578 0-2.857-1.232-2.857-2.768 0-1.53 1.279-2.761 2.857-2.761 1.572 0 2.85 1.232 2.85 2.761 0 1.536-1.264 2.768-2.85 2.768zM26.543 28.768c-1.593 0-2.857-1.232-2.857-2.768 0-1.53 1.264-2.761 2.857-2.761 1.571 0 2.85 1.232 2.85 2.761 0 1.536-1.279 2.768-2.85 2.768z" fill="#FFDFB2"/>
        </g>
    </g>
</svg>
