<svg width="32" height="32" viewBox="0 0 32 32" xmlns="http://www.w3.org/2000/svg">
    <g fill="none" fill-rule="evenodd">
        <path d="m4.783 19.715-2.131-2.13c-.87-.87-.87-2.3 0-3.17l2.131-2.13c.365-.365.66-1.08.66-1.585V7.686a2.25 2.25 0 0 1 2.243-2.244H10.7c.505 0 1.22-.294 1.584-.659l2.132-2.131c.869-.87 2.3-.87 3.168 0l2.132 2.131c.364.365 1.08.66 1.584.66h3.014a2.25 2.25 0 0 1 2.244 2.243V10.7c0 .505.294 1.22.659 1.584l2.131 2.132c.87.869.87 2.3 0 3.168l-2.131 2.131c-.365.365-.66 1.08-.66 1.585v3.014a2.25 2.25 0 0 1-2.243 2.244H21.3c-.505 0-1.22.294-1.584.659l-2.132 2.131c-.869.87-2.3.87-3.168 0l-2.132-2.131c-.364-.365-1.08-.66-1.584-.66H7.686a2.25 2.25 0 0 1-2.244-2.243V21.3c0-.519-.294-1.234-.659-1.585z" fill="#6D6BDD"/>
        <path d="M20.205 18.792c.772 0 1.403.631 1.403 1.402 0 .772-.617 1.403-1.389 1.403a1.41 1.41 0 0 1-1.416-1.403c0-.77.631-1.402 1.402-1.402zm.762-7.751c.407.406.407 1.08 0 1.486l-8.413 8.413a1.04 1.04 0 0 1-.743.308 1.04 1.04 0 0 1-.743-.308 1.058 1.058 0 0 1 0-1.487l8.413-8.412a1.058 1.058 0 0 1 1.486 0zm-9.158-.661c.771 0 1.402.63 1.402 1.402 0 .771-.617 1.402-1.388 1.402a1.41 1.41 0 0 1-1.416-1.402c0-.771.631-1.402 1.402-1.402z" fill="#FFF" fill-rule="nonzero"/>
    </g>
</svg>
