<svg width="32" height="32" viewBox="0 0 32 32" xmlns="http://www.w3.org/2000/svg">
    <g transform="translate(4 1)" fill="none" fill-rule="evenodd">
        <path d="M18 0a2 2 0 0 1 2 2v12.57a2.863 2.863 0 0 0-.801-.12l-1.261-.006-.19.005-.196.018A2.855 2.855 0 0 0 15.1 16.78l-.014.095-.038-.014-.198-.057c-1.32-.337-2.63.205-3.271 1.322l-.663 1.156-.111.218-.078.203-.067.216c-.29 1.085.04 2.182.85 2.89l.137.11-.168.138-.161.164c-.874.95-1.037 2.262-.44 3.328l.652 1.164.124.199.131.17.149.167c.817.855 2.012 1.14 3.09.752l.022.138.052.205c.068.235.162.455.277.658L2 30a2 2 0 0 1-2-2V2a2 2 0 0 1 2-2h16z" fill="#5EC2B2"/>
        <path d="m17.796 16.228 1.525.008a1 1 0 0 1 .99.899l.116 1.146c.452.189.87.443 1.246.75l.993-.441a1 1 0 0 1 1.281.428l.779 1.406a1 1 0 0 1-.276 1.285l-.916.685c.033.243.055.49.053.742a5.365 5.365 0 0 1-.06.741l.925.708a1 1 0 0 1 .274 1.267l-.705 1.313a1 1 0 0 1-1.215.47l-1.174-.416c-.38.304-.8.553-1.254.737L20.25 29.1a1 1 0 0 1-1 .889l-1.524-.008a1 1 0 0 1-.99-.9l-.116-1.145a5.019 5.019 0 0 1-1.247-.75l-.992.441A1 1 0 0 1 13.1 27.2l-.78-1.406a1 1 0 0 1 .277-1.285l.916-.685a5.383 5.383 0 0 1-.054-.742c.002-.253.026-.499.061-.741l-.909-.695a1 1 0 0 1-.262-1.288l.792-1.396a1 1 0 0 1 1.287-.416l.987.453c.379-.304.8-.553 1.254-.738l.128-1.143a1 1 0 0 1 1-.889zm.743 3.75c-1.663-.008-3.018 1.386-3.027 3.114-.009 1.728 1.333 3.137 2.996 3.146 1.663.009 3.018-1.385 3.027-3.113.009-1.729-1.333-3.137-2.996-3.146z" fill="#4F8DAD"/>
        <rect fill="#FFF" x="8" y="3" width="4" height="4" rx="1"/>
    </g>
</svg>
