<svg xmlns="http://www.w3.org/2000/svg" width="144" height="24" viewBox="0 0 144 24">
    <g fill="none" fill-rule="evenodd">
        <g>
            <g>
                <g>
                    <g>
                        <path fill="#FFBC00" d="M32.587 12.25l-.287-.185c-.976-.987-2.336-1.414-4.155-1.306-1.514.093-2.715.701-3.633 1.265l-.001-.042c0-.48.054-1 .107-1.505.053-.514.108-1.036.108-1.53 0-.505-.057-.984-.229-1.393-.043-.105-.139-.167-.26-.167-.489.01-1.444.35-1.676.555l-.125.279c-.009.549-.128 2.079-.25 2.264.006-.007-.062.185-.062.185-.207 2.185-.211 4.106-.021 5.756.021.165.336.413.578.503.266.1 1.098-.126 1.578-.308l.18-.03c.152-.016.24-.145.234-.32-.002-.004.012-.476.012-.476.346-1.423 1.747-3.122 3.405-3.377.937-.151 1.677.093 2.262.737.079.116.25 1.141-.368 2.318-.46.871-1.38 1.607-2.589 2.066-1.145.44-2.405.618-3.961.564-.065-.042-1.457-.996-1.457-.996-1.234-.877-2.768-1.968-4.157-2.5-.245-.096-.682-.464-.945-.684l-.144-.12c-.801-.65-2.327-1.678-3.552-2.503l-.66-.448c.002-.046.002-.14.002-.14.035-.04.806-.506.806-.506 1.077-.639 1.575-.951 1.68-1.113-.021.026.144-.086.144-.086.01-.004 2.672-1.53 2.672-1.53 2.564-1.424 5.47-3.042 6.996-4.64l.075-.245.032-.217c.103-.342.108-.604.022-.908-.022-.087-.1-.188-.206-.206-1.192-.12-2.728.603-4.128 1.93-.316.299-.58.446-.86.6l-.215.12c-1.542.887-5.017 3.07-6.836 4.247.12-1.98.48-4.794.927-7.14l-.05-.28-.189-.356-.14-.253-.041-.011c-.363-.185-.66-.11-.878-.056l-.363.136-.486.178c-.095.019-.162.08-.2.172-.868 2.125-1.593 5.619-1.764 8.414C7.783 7.845 6.178 7.04 5.391 6.654L5.37 6.64l-.094-.02c-.283-.037-.629-.248-.96-.45l-.661-.434-1.009-.654c.008.007-.266-.061-.266-.061-.433.075-1.265.64-1.511 1.027-.032.05-.047.105-.047.163 0 .081.026.163.047.243l.044.207.048.125c.483.501 1.703 1.337 2.9 1.988l1.386.743 2.124 1.173c0 .01.36.29.36.29l.25.146s.03.017.046.028c-.565.384-3.861 2.61-3.861 2.61l-2.03 1.36c-.192.133-.993.496-1.17.568-.44.182-.774.46-.911.762L0 16.574l.055.078.156.12c-.009 0 .207.137.207.137l.224.155.211.034c.357.014.885-.192 1.874-.63.908-.406 3.373-1.912 4.428-2.555l.45-.273c.185.016.39-.143.573-.282.211-.17.67-.457.95-.582.01-.002.17-.092.321-.177-.002.047-.002.122-.002.122.046 3.262.231 5.634.584 7.462l.005.032.034.073c.173.258.371 1.03.546 1.713l.401 1.362c.01.016.114.127.114.127.23.158.928.43 1.395.373l.116-.015.073-.165c.04-.203.054-.404.054-.624 0-.249-.018-.523-.04-.859l-.031-.49c-.148-2.278-.296-5.566-.296-7.753v-.173c.383.241 2.055 1.308 2.055 1.308 2.849 1.87 7.15 4.692 9.748 5.439.136.042.278.009.377-.088l.4-.26.076-.03c.149-.072.248-.326.266-.602 2.19-.111 5.246-.965 6.881-3.045.633-.806.917-1.793.917-2.637 0-.693-.19-1.291-.535-1.62" transform="translate(-108.000000, -40.000000) translate(0.000000, 24.000000) translate(107.999917, 16.000000) translate(0.000000, 0.000129)"/>
                        <path fill="#60584C" d="M65.91 3.342c3.753 0 5.712 1.259 5.712 4.016 0 1.96-1.35 3.31-3.15 3.675v.068c2.58.31 3.8 2.023 3.8 3.954 0 2.427-1.754 4.518-6.112 4.518h-8.134V3.342h7.885zm-22.676 0v7.264l8.623-7.264h3.627l-9.112 7.331 9.868 8.9h-3.624l-9.382-8.698v8.698h-2.562V3.342h2.562zm48.39-.027v5.264h1.445v1.775h-7.262v2.548h5.91v6.632h-2.018v-4.868h-11.86v-1.764h5.954v-2.548h-7.19V8.592h13V5.066H78.06V3.315h13.565zm33.804-.151v4.11h2.051v1.77h-2.05v10.452h-2.027V3.164h2.026zM98.937 13.469V17.7h10.66v1.766H96.918V13.47h2.019zm45.057 3.179v1.749H128.59v-1.75h15.405zM65.49 12.023H60.58v5.707h5.043c3.132 0 3.962-1.235 3.962-2.81 0-1.865-1.276-2.897-4.097-2.897zm55.464-8.466v10.65h-2.036V9.521h-7.186V7.771h7.186V5.328h-7.186V3.557h9.222zm-11.512-.394V13.88h-2.008V3.163h2.008zm32.897.394v1.75h-10.107v5.896h10.107v1.75h-12.1V3.557h12.1zm-37.685-.002v8.162h-9.557V3.555h9.557zM65.49 5.189H60.58v4.989h5.203c1.935 0 3.36-.742 3.36-2.472 0-1.51-.704-2.517-3.655-2.517zm37.16.138h-5.541v4.61h5.542v-4.61z" transform="translate(-108.000000, -40.000000) translate(0.000000, 24.000000) translate(107.999917, 16.000000) translate(0.000000, 0.000129)"/>
                    </g>
                </g>
            </g>
        </g>
    </g>
</svg>
